<?xml version="1.0" encoding="UTF-8" standalone="no"?>
<!DOCTYPE svg PUBLIC "-//W3C//DTD SVG 1.1//EN" "http://www.w3.org/Graphics/SVG/1.1/DTD/svg11.dtd">
<svg width="100%" height="100%" viewBox="0 0 600 600" version="1.1" xmlns="http://www.w3.org/2000/svg" xmlns:xlink="http://www.w3.org/1999/xlink" xml:space="preserve" xmlns:serif="http://www.serif.com/" style="fill-rule:evenodd;clip-rule:evenodd;stroke-linecap:round;stroke-linejoin:round;stroke-miterlimit:1.5;">
    <g transform="matrix(6.16711,0,0,6.16711,63.6168,-43.4636)">
        <text x="11px" y="96px" style="font-family:'Arial-BoldMT', 'Arial', sans-serif;font-weight:700;font-size:19.458px;">LED</text>
        <text x="56.51px" y="96px" style="font-family:'Arial-BoldMT', 'Arial', sans-serif;font-weight:700;font-size:19.458px;">1</text>
    </g>
    <g transform="matrix(3.42912e-16,5.96817,-7.46689,4.8726e-16,648.753,-100.712)">
        <path d="M65.5,34L81,60L50,60L65.5,34Z" style="stroke-width:0.15px;"/>
    </g>
    <path d="M394.878,197.697L394.878,382.71" style="fill:none;stroke-width:16px;stroke-linecap:butt;"/>
    <g transform="matrix(0.798063,-1.70648,6.38366,2.98542,126.729,162.009)">
        <path d="M15,9.075L15,5.925L60.166,5.925L60.166,3L77,7.5L60.166,12L60.166,9.075L15,9.075Z"/>
    </g>
    <g transform="matrix(0.798063,-1.70648,6.38366,2.98542,212.793,162.009)">
        <path d="M15,9.075L15,5.925L60.166,5.925L60.166,3L77,7.5L60.166,12L60.166,9.075L15,9.075Z"/>
    </g>
    <g transform="matrix(0.798063,-1.70648,6.38366,2.98542,298.857,162.009)">
        <path d="M15,9.075L15,5.925L60.166,5.925L60.166,3L77,7.5L60.166,12L60.166,9.075L15,9.075Z"/>
    </g>
</svg>
