<?xml version="1.0" encoding="UTF-8" standalone="no"?>
<!DOCTYPE svg PUBLIC "-//W3C//DTD SVG 1.1//EN" "http://www.w3.org/Graphics/SVG/1.1/DTD/svg11.dtd">
<svg width="100%" height="100%" viewBox="0 0 1200 1080" version="1.1" xmlns="http://www.w3.org/2000/svg" xmlns:xlink="http://www.w3.org/1999/xlink" xml:space="preserve" xmlns:serif="http://www.serif.com/" style="fill-rule:evenodd;clip-rule:evenodd;stroke-linecap:round;stroke-linejoin:round;stroke-miterlimit:1.5;">
    <g transform="matrix(1,0,0,1,-418.306,91)">
        <path d="M1190.85,757.27C1220.99,722.201 1265.67,700 1315.5,700C1406.29,700 1480,773.71 1480,864.5C1480,897.208 1470.43,927.699 1453.92,953.287C1400.08,854.171 1304.51,780.941 1190.85,757.27Z" style="fill:none;stroke:rgb(221,221,221);stroke-width:5px;"/>
    </g>
    <g transform="matrix(1,0,0,1,-387.306,0)">
        <path d="M1139.59,600.594C1092.96,690.067 1040,759 1040,759" style="fill:none;stroke:rgb(221,221,221);stroke-width:5px;"/>
    </g>
    <g transform="matrix(1,0,0,1,-387.306,0)">
        <path d="M879.984,758.699C879.984,758.699 451.035,160.001 960.531,160.001C1175.74,160.001 1222.89,299.737 1206.16,414.955" style="fill:none;stroke:rgb(221,221,221);stroke-width:5px;"/>
    </g>
    <g transform="matrix(1,0,0,1,-387.306,0)">
        <path d="M1407.98,466.038C1415.71,482.334 1420,500.439 1420,519.5C1420,590.973 1359.74,649 1285.51,649C1232.44,649 1187.71,617.468 1166.06,574.071C1231.55,550.276 1338.13,502.301 1407.98,466.038Z" style="fill:none;stroke:rgb(221,221,221);stroke-width:5px;"/>
    </g>
    <g transform="matrix(1,0,0,1,-387.306,0)">
        <path d="M1167.98,542.245C1186.19,500.242 1199.99,457.43 1206.16,414.955C1228.41,399.266 1255.84,390 1285.51,390C1328.62,390 1367.03,409.58 1391.62,440.016" style="fill:none;stroke:rgb(221,221,221);stroke-width:5px;"/>
    </g>
    <g transform="matrix(1,0,0,1,-387.306,0)">
        <path d="M1167.98,542.245L1160,560C1161.75,564.814 1163.78,569.52 1166.06,574.071L1153.9,578.431L1150.21,579.666L1158.54,562.302L1167.98,542.245" style="fill:none;stroke:rgb(221,221,221);stroke-width:5px;"/>
    </g>
    <g transform="matrix(1,0,0,1,-387.306,0)">
        <path d="M1391.62,440.016L1391.65,440C1518.98,399.101 1486.95,425.077 1407.98,466.038C1403.59,456.71 1398.08,447.972 1391.62,440.016Z" style="fill:none;stroke:rgb(221,221,221);stroke-width:5px;"/>
    </g>
    <g transform="matrix(1,0,0,1,-387.306,0)">
        <path d="M1388.01,436.335C1778.5,293.869 1372.66,513.549 1144.99,590.13" style="fill:none;stroke:rgb(221,221,221);stroke-width:5px;"/>
    </g>
    <g transform="matrix(1,0,0,1,-387.306,0)">
        <path d="M1139.59,600.594C1143.18,593.746 1146.73,586.756 1150.21,579.666" style="fill:none;stroke:rgb(221,221,221);stroke-width:5px;"/>
    </g>
    <g transform="matrix(1,0,0,1,-387.306,0)">
        <path d="M891.997,744.943C891.997,744.943 569.109,160 960.531,160C1314.92,160 1076.24,658.231 1028.01,744.936" style="fill:none;stroke:rgb(221,221,221);stroke-width:5px;"/>
    </g>
    <g transform="matrix(1,0,0,1,-387.306,0)">
        <path d="M920,739.656C920,739.656 739.818,160 960,160C1180.18,160 1003.27,740 1003.27,740" style="fill:none;stroke:rgb(221,221,221);stroke-width:5px;"/>
    </g>
    <g transform="matrix(1,0,0,1,-387.306,0)">
        <path d="M880,759C880,759 876.832,738 960,738C1043.17,738 1040,759 1040,759" style="fill:none;stroke:rgb(221,221,221);stroke-width:5px;"/>
    </g>
    <g transform="matrix(1,0,0,1,-387.306,0)">
        <path d="M1424,1044C1454.01,1099.25 1469.97,1162.81 1469.97,1230.03C1469.97,1445.26 1295.23,1620 1080,1620C864.769,1620 690.029,1445.26 690.029,1230.03C690.029,1179.83 702.484,1096.99 742.641,1029.75" style="fill:none;stroke:rgb(221,221,221);stroke-width:5px;"/>
    </g>
    <g transform="matrix(1,0,0,1,-387.306,0)">
        <path d="M882.763,893.665C897.854,884.736 913.645,876.824 930,869.995L930,840C930,840 957.419,825.116 990,840C990.002,844.189 990.018,847.579 990.038,850.504C993.102,849.779 996.18,849.091 999.271,848.439C1025.32,842.946 1052.33,840.057 1080,840.057C1107.38,840.057 1140.3,844.615 1166.06,850" style="fill:none;stroke:rgb(221,221,221);stroke-width:5px;"/>
    </g>
    <g transform="matrix(1,0,0,1,-387.306,0)">
        <path d="M929.988,870L930,880C941.202,890.505 984.535,886.833 990,880C990.247,865.605 990.113,861.1 990.038,850.504" style="fill:none;stroke:rgb(221,221,221);stroke-width:5px;"/>
    </g>
    <g transform="matrix(1,0,0,1,-387.306,0)">
        <path d="M879.984,759L930,840" style="fill:none;stroke:rgb(221,221,221);stroke-width:5px;"/>
    </g>
    <g transform="matrix(1,0,0,1,-387.306,0)">
        <path d="M990.142,840L1040.02,758.699" style="fill:none;stroke:rgb(221,221,221);stroke-width:5px;"/>
    </g>
    <g transform="matrix(1,0,0,1,-387.306,0)">
        <path d="M920,740L947,833.385" style="fill:none;stroke:rgb(221,221,221);stroke-width:5px;"/>
    </g>
    <g transform="matrix(1,0,0,1,-387.306,0)">
        <path d="M1003,740L972,833.385" style="fill:none;stroke:rgb(221,221,221);stroke-width:5px;"/>
    </g>
    <g transform="matrix(0.979411,-0.201879,0.201879,0.979411,-501.534,156.074)">
        <path d="M708.035,620L712.084,632.462L725.187,632.462L714.586,640.163L718.635,652.625L708.035,644.923L697.434,652.625L701.483,640.163L690.883,632.462L703.986,632.462L708.035,620Z" style="fill:none;stroke:rgb(221,221,221);stroke-width:5px;"/>
    </g>
    <g transform="matrix(0.93335,-0.358967,0.358967,0.93335,-572.836,470.777)">
        <path d="M1175.01,710L1180.62,727.28L1198.79,727.28L1184.09,737.96L1189.71,755.24L1175.01,744.56L1160.31,755.24L1165.92,737.96L1151.22,727.28L1169.39,727.28L1175.01,710Z" style="fill:none;stroke:rgb(221,221,221);stroke-width:5px;"/>
    </g>
    <g transform="matrix(0.912577,0.408904,-0.408904,0.912577,-146.304,-487.244)">
        <path d="M1260,300L1264.49,313.82L1279.02,313.82L1267.27,322.361L1271.76,336.18L1260,327.639L1248.24,336.18L1252.74,322.361L1240.98,313.82L1255.51,313.82L1260,300Z" style="fill:none;stroke:rgb(221,221,221);stroke-width:5px;"/>
    </g>
    <g transform="matrix(0.862109,0.506722,-0.506722,0.862109,-28.4219,-340.205)">
        <path d="M790,840L794.874,855L804.266,850.365L802.76,860.729L818.532,860.729L805.772,870L813.083,877.5L802.76,879.271L807.634,894.271L794.874,885L790,894.271L785.126,885L772.366,894.271L777.24,879.271L766.917,877.5L774.228,870L761.468,860.729L777.24,860.729L775.734,850.365L785.126,855L790,840Z" style="fill:none;stroke:rgb(221,221,221);stroke-width:5px;"/>
    </g>
    <g transform="matrix(0.660319,-0.0911754,0.0911754,0.660319,-181.474,241.933)">
        <path d="M448.886,628.156C448.886,628.156 453.97,700.499 520,688C620.807,591.907 620,592 620,592C622.115,599.245 542.312,593.728 554,526C444.009,632.344 448.886,628.156 448.886,628.156Z" style="fill:none;stroke:rgb(221,221,221);stroke-width:7.5px;"/>
    </g>
    <g transform="matrix(0.660319,-0.0911754,0.0911754,0.660319,-181.474,241.933)">
        <path d="M520,690L483.668,790.777L477.014,729.281" style="fill:none;stroke:rgb(221,221,221);stroke-width:7.5px;"/>
    </g>
    <g transform="matrix(0.739398,0.00427401,-0.00385306,0.666573,-150.15,193.287)">
        <path d="M439.259,631.027L360,670L416.218,674.989" style="fill:none;stroke:rgb(221,221,221);stroke-width:7.1px;"/>
    </g>
    <path d="M232.301,538.75C232.301,538.75 284.262,514.808 290,520C295.738,525.192 281.958,576.36 281.958,576.36" style="fill:none;stroke:rgb(221,221,221);stroke-width:5px;"/>
    <g transform="matrix(1,0,0,1,-387.306,0)">
        <path d="M542.306,645C465.594,716.985 336.25,1017.58 722.39,1070" style="fill:none;stroke:rgb(221,221,221);stroke-width:5px;"/>
    </g>
    <g transform="matrix(1,0,0,1,-387.306,0)">
        <path d="M587.306,680C566.151,694.012 317.329,964.317 725.671,1062.44" style="fill:none;stroke:rgb(221,221,221);stroke-width:5px;"/>
    </g>
    <g transform="matrix(1.07746,0.970423,-0.970423,1.07746,315.094,-969.376)">
        <path d="M939.971,963.627L939.941,963.649C939.227,977.83 940.506,991.998 943.269,1005.84C923.121,1029.82 893.258,1045 859.957,1045C878.163,1018.75 892.944,977.377 892.944,932.5C892.944,887.623 878.163,846.25 859.957,820C898.643,820 932.69,840.485 952.266,871.439" style="fill:none;stroke:rgb(221,221,221);stroke-width:3.45px;"/>
    </g>
    <g transform="matrix(1.07746,0.970423,-0.970423,1.07746,315.094,-969.376)">
        <path d="M939.971,963.627C938.688,932.516 942.809,901.289 952.266,871.439" style="fill:none;stroke:rgb(221,221,221);stroke-width:3.45px;"/>
    </g>
    <g transform="matrix(0.917234,-0.398349,0.398349,0.917234,-538.554,262.053)">
        <path d="M555,480L558.368,490.365L569.266,490.365L560.449,496.771L563.817,507.135L555,500.729L546.183,507.135L549.551,496.771L540.734,490.365L551.632,490.365L555,480Z" style="fill:none;stroke:rgb(221,221,221);stroke-width:5px;"/>
    </g>
    <g transform="matrix(1,0,0,1,-387.306,0)">
        <path d="M690,370L692.245,376.91L699.511,376.91L693.633,381.18L695.878,388.09L690,383.82L684.122,388.09L686.367,381.18L680.489,376.91L687.755,376.91L690,370Z" style="fill:none;stroke:rgb(221,221,221);stroke-width:5px;"/>
    </g>
</svg>
